<mxfile host="app.diagrams.net" modified="2023-04-07T22:22:04.515Z" agent="Mozilla/5.0 (Windows NT 10.0; Win64; x64) AppleWebKit/537.36 (KHTML, like Gecko) Chrome/111.0.0.0 Safari/537.36 Edg/111.0.1661.62" etag="9VR83xRVQnaQlp_-gQ2M" version="21.1.5" type="device">
  <diagram name="Страница 1" id="CLdyJPRxlaQoju4Z9uPt">
    <mxGraphModel dx="897" dy="746" grid="1" gridSize="10" guides="1" tooltips="1" connect="1" arrows="1" fold="1" page="1" pageScale="1" pageWidth="827" pageHeight="1169" math="0" shadow="0">
      <root>
        <mxCell id="0" />
        <mxCell id="1" parent="0" />
        <mxCell id="5UYoVR2sFKzVY7LatRvK-10" style="edgeStyle=orthogonalEdgeStyle;rounded=0;orthogonalLoop=1;jettySize=auto;html=1;entryX=0.5;entryY=0;entryDx=0;entryDy=0;" edge="1" parent="1" source="5UYoVR2sFKzVY7LatRvK-2" target="5UYoVR2sFKzVY7LatRvK-3">
          <mxGeometry relative="1" as="geometry">
            <Array as="points">
              <mxPoint x="360" y="80" />
              <mxPoint x="360" y="80" />
            </Array>
          </mxGeometry>
        </mxCell>
        <mxCell id="5UYoVR2sFKzVY7LatRvK-2" value="SecondStringArray" style="rounded=1;whiteSpace=wrap;html=1;" vertex="1" parent="1">
          <mxGeometry x="300" y="90" width="120" height="20" as="geometry" />
        </mxCell>
        <mxCell id="5UYoVR2sFKzVY7LatRvK-12" style="edgeStyle=orthogonalEdgeStyle;rounded=0;orthogonalLoop=1;jettySize=auto;html=1;entryX=0.5;entryY=0;entryDx=0;entryDy=0;" edge="1" parent="1" source="5UYoVR2sFKzVY7LatRvK-3">
          <mxGeometry relative="1" as="geometry">
            <mxPoint x="360" y="230" as="targetPoint" />
          </mxGeometry>
        </mxCell>
        <mxCell id="5UYoVR2sFKzVY7LatRvK-3" value="string[] array&lt;br&gt;string [] stringArray&lt;br&gt;count = 0" style="shape=parallelogram;perimeter=parallelogramPerimeter;whiteSpace=wrap;html=1;fixedSize=1;" vertex="1" parent="1">
          <mxGeometry x="260" y="130" width="200" height="60" as="geometry" />
        </mxCell>
        <mxCell id="5UYoVR2sFKzVY7LatRvK-15" value="Yes" style="edgeStyle=orthogonalEdgeStyle;rounded=0;orthogonalLoop=1;jettySize=auto;html=1;entryX=0.459;entryY=1.033;entryDx=0;entryDy=0;entryPerimeter=0;" edge="1" parent="1" source="5UYoVR2sFKzVY7LatRvK-5" target="5UYoVR2sFKzVY7LatRvK-6">
          <mxGeometry x="-0.3847" relative="1" as="geometry">
            <mxPoint as="offset" />
          </mxGeometry>
        </mxCell>
        <mxCell id="5UYoVR2sFKzVY7LatRvK-29" value="No" style="edgeStyle=orthogonalEdgeStyle;rounded=0;orthogonalLoop=1;jettySize=auto;html=1;entryX=0.85;entryY=1.075;entryDx=0;entryDy=0;entryPerimeter=0;" edge="1" parent="1" source="5UYoVR2sFKzVY7LatRvK-5" target="5UYoVR2sFKzVY7LatRvK-21">
          <mxGeometry relative="1" as="geometry">
            <mxPoint x="480" y="280" as="targetPoint" />
            <Array as="points">
              <mxPoint x="461" y="350" />
            </Array>
          </mxGeometry>
        </mxCell>
        <mxCell id="5UYoVR2sFKzVY7LatRvK-5" value="if (array[i].Length &amp;lt;= 3" style="rhombus;whiteSpace=wrap;html=1;" vertex="1" parent="1">
          <mxGeometry x="260" y="320" width="200" height="60" as="geometry" />
        </mxCell>
        <mxCell id="5UYoVR2sFKzVY7LatRvK-16" style="edgeStyle=orthogonalEdgeStyle;rounded=0;orthogonalLoop=1;jettySize=auto;html=1;entryX=0;entryY=0.5;entryDx=0;entryDy=0;" edge="1" parent="1" source="5UYoVR2sFKzVY7LatRvK-6" target="5UYoVR2sFKzVY7LatRvK-21">
          <mxGeometry relative="1" as="geometry">
            <mxPoint x="240" y="270" as="targetPoint" />
          </mxGeometry>
        </mxCell>
        <mxCell id="5UYoVR2sFKzVY7LatRvK-6" value="stringArray[count] = array [i]&lt;br&gt;count++" style="rounded=0;whiteSpace=wrap;html=1;" vertex="1" parent="1">
          <mxGeometry x="40" y="220" width="170" height="60" as="geometry" />
        </mxCell>
        <mxCell id="5UYoVR2sFKzVY7LatRvK-7" value="End" style="rounded=1;whiteSpace=wrap;html=1;" vertex="1" parent="1">
          <mxGeometry x="580" y="335" width="120" height="30" as="geometry" />
        </mxCell>
        <mxCell id="5UYoVR2sFKzVY7LatRvK-26" style="edgeStyle=orthogonalEdgeStyle;rounded=0;orthogonalLoop=1;jettySize=auto;html=1;entryX=0.5;entryY=0;entryDx=0;entryDy=0;" edge="1" parent="1" source="5UYoVR2sFKzVY7LatRvK-21" target="5UYoVR2sFKzVY7LatRvK-24">
          <mxGeometry relative="1" as="geometry" />
        </mxCell>
        <mxCell id="5UYoVR2sFKzVY7LatRvK-27" style="edgeStyle=orthogonalEdgeStyle;rounded=0;orthogonalLoop=1;jettySize=auto;html=1;entryX=0.5;entryY=0;entryDx=0;entryDy=0;exitX=0.465;exitY=1;exitDx=0;exitDy=0;exitPerimeter=0;" edge="1" parent="1" source="5UYoVR2sFKzVY7LatRvK-21" target="5UYoVR2sFKzVY7LatRvK-5">
          <mxGeometry relative="1" as="geometry" />
        </mxCell>
        <mxCell id="5UYoVR2sFKzVY7LatRvK-21" value="for (int i = 0; i &amp;lt; array.Length; i++)" style="shape=hexagon;perimeter=hexagonPerimeter2;whiteSpace=wrap;html=1;fixedSize=1;" vertex="1" parent="1">
          <mxGeometry x="240" y="230" width="260" height="40" as="geometry" />
        </mxCell>
        <mxCell id="5UYoVR2sFKzVY7LatRvK-23" style="edgeStyle=orthogonalEdgeStyle;rounded=0;orthogonalLoop=1;jettySize=auto;html=1;" edge="1" parent="1" source="5UYoVR2sFKzVY7LatRvK-22" target="5UYoVR2sFKzVY7LatRvK-2">
          <mxGeometry relative="1" as="geometry" />
        </mxCell>
        <mxCell id="5UYoVR2sFKzVY7LatRvK-22" value="Start" style="rounded=1;whiteSpace=wrap;html=1;" vertex="1" parent="1">
          <mxGeometry x="300" y="40" width="120" height="30" as="geometry" />
        </mxCell>
        <mxCell id="5UYoVR2sFKzVY7LatRvK-25" style="edgeStyle=orthogonalEdgeStyle;rounded=0;orthogonalLoop=1;jettySize=auto;html=1;" edge="1" parent="1" source="5UYoVR2sFKzVY7LatRvK-24" target="5UYoVR2sFKzVY7LatRvK-7">
          <mxGeometry relative="1" as="geometry" />
        </mxCell>
        <mxCell id="5UYoVR2sFKzVY7LatRvK-24" value="SecondStringArray(array, stringArray)" style="rounded=1;whiteSpace=wrap;html=1;" vertex="1" parent="1">
          <mxGeometry x="520" y="290" width="240" height="20" as="geometry" />
        </mxCell>
      </root>
    </mxGraphModel>
  </diagram>
</mxfile>
